<?xml version="1.0" encoding="utf-8"?>
<!-- Generator: Adobe Illustrator 28.0.0, SVG Export Plug-In . SVG Version: 6.00 Build 0)  -->
<svg version="1.1" id="Layer_1" xmlns="http://www.w3.org/2000/svg" xmlns:xlink="http://www.w3.org/1999/xlink" x="0px" y="0px"
	 viewBox="0 0 46 46" style="enable-background:new 0 0 46 46;" xml:space="preserve">
<style type="text/css">
	.st0{fill:#ED454D;}
	.st1{fill:#FFFFFF;}
</style>
<g>
	<g>
		<circle class="st0" cx="23" cy="23" r="23"/>
	</g>
	<g>
		<path class="st1" d="M23.8,14.2l7.5,8c0.4,0.4,0.4,1.1,0,1.5l-0.1,0.1c-0.4,0.5-1.2,0.4-1.6,0l-4.9-5.2c-0.2-0.2-0.6-0.1-0.6,0.2
			v12.6c0,0.6-0.5,1.1-1.1,1.1h0c-0.6,0-1.1-0.5-1.1-1.1V18.9c0-0.3-0.4-0.5-0.6-0.2l-4.9,5.2c-0.4,0.5-1.2,0.5-1.6,0l-0.1-0.1
			c-0.4-0.4-0.4-1.1,0-1.5l7.5-8C22.6,13.7,23.4,13.7,23.8,14.2z"/>
	</g>
</g>
</svg>
